<svg class="svg-icon" style="width: 1em; height: 1em;vertical-align: middle;fill: currentColor;overflow: hidden;" viewBox="0 0 1024 1024" version="1.1" xmlns="http://www.w3.org/2000/svg"><path d="M746.057143 819.2v-51.2h43.885714c102.4 0 182.857143-80.457143 182.857143-182.857143 0-87.771429-65.828571-160.914286-153.6-175.542857h-65.828571v-7.314286c0-21.942857 0-36.571429-7.314286-58.514285C724.114286 226.742857 621.714286 138.971429 512 138.971429S299.885714 226.742857 270.628571 343.771429c0 21.942857-7.314286 43.885714-7.314285 58.514285v7.314286h-58.514286C117.028571 431.542857 51.2 504.685714 51.2 592.457143c0 102.4 80.457143 182.857143 182.857143 182.857143h51.2v51.2h-58.514286C102.4 819.2 0 716.8 0 592.457143c0-117.028571 87.771429-219.428571 212.114286-226.742857H219.428571v-14.628572c29.257143-146.285714 146.285714-256 292.571429-256s263.314286 109.714286 285.257143 263.314286v14.628571h14.628571c117.028571 0 212.114286 102.4 212.114286 219.428572 0 124.342857-102.4 226.742857-226.742857 226.742857h-51.2z" fill="#606266" /><path d="M519.314286 928.914286c-14.628571 0-21.942857-7.314286-21.942857-21.942857V570.514286L387.657143 680.228571s-7.314286 7.314286-14.628572 7.314286-14.628571 0-14.628571-7.314286c-7.314286-7.314286-7.314286-14.628571-7.314286-21.942857 0-7.314286 0-14.628571 7.314286-14.628571l146.285714-146.285714c7.314286-7.314286 14.628571-7.314286 14.628572-7.314286s14.628571 0 14.628571 7.314286l146.285714 146.285714c14.628571 7.314286 14.628571 14.628571 14.628572 14.628571s0 14.628571-7.314286 14.628572c-7.314286 7.314286-7.314286 14.628571-14.628571 14.628571s-14.628571 0-14.628572-7.314286L548.571429 570.514286v336.457143c0 14.628571-14.628571 21.942857-29.257143 21.942857z" fill="#606266" /></svg>