<svg width="30" height="32" viewBox="0 0 30 32" fill="none" xmlns="http://www.w3.org/2000/svg">
<path d="M15 32C18.9782 32 22.7936 30.3143 25.6066 27.3137C28.4196 24.3131 30 20.2435 30 16C30 11.7565 28.4196 7.68687 25.6066 4.68629C22.7936 1.68571 18.9782 0 15 0C11.0218 0 7.20644 1.68571 4.3934 4.68629C1.58035 7.68687 0 11.7565 0 16C0 20.2435 1.58035 24.3131 4.3934 27.3137C7.20644 30.3143 11.0218 32 15 32ZM16.7438 13.176L14.8687 22.586C14.7375 23.266 14.9231 23.652 15.4388 23.652C15.8025 23.652 16.3519 23.512 16.725 23.16L16.56 23.992C16.0219 24.684 14.835 25.188 13.8131 25.188C12.495 25.188 11.9344 24.344 12.2981 22.55L13.6819 15.614C13.8019 15.028 13.6931 14.816 13.1438 14.674L12.2981 14.512L12.4519 13.75L16.7456 13.176H16.7438ZM15 11C14.5027 11 14.0258 10.7893 13.6742 10.4142C13.3225 10.0391 13.125 9.53043 13.125 9C13.125 8.46957 13.3225 7.96086 13.6742 7.58579C14.0258 7.21071 14.5027 7 15 7C15.4973 7 15.9742 7.21071 16.3258 7.58579C16.6775 7.96086 16.875 8.46957 16.875 9C16.875 9.53043 16.6775 10.0391 16.3258 10.4142C15.9742 10.7893 15.4973 11 15 11Z" fill="#FF9A62"/>
</svg>
