<svg width="56" height="70" viewBox="0 0 56 70" fill="none" xmlns="http://www.w3.org/2000/svg">
<path d="M47.3846 0H17.2308C14.9458 0 12.7545 0.921872 11.1388 2.56282C9.52307 4.20376 8.61539 6.42936 8.61539 8.75C6.33044 8.75 4.13909 9.67187 2.52339 11.3128C0.907689 12.9538 0 15.1794 0 17.5V61.25C0 63.5706 0.907689 65.7962 2.52339 67.4372C4.13909 69.0781 6.33044 70 8.61539 70H38.7692C41.0542 70 43.2455 69.0781 44.8612 67.4372C46.4769 65.7962 47.3846 63.5706 47.3846 61.25C49.6696 61.25 51.8609 60.3281 53.4766 58.6872C55.0923 57.0462 56 54.8206 56 52.5V8.75C56 6.42936 55.0923 4.20376 53.4766 2.56282C51.8609 0.921872 49.6696 0 47.3846 0V0ZM47.3846 56.875V17.5C47.3846 15.1794 46.4769 12.9538 44.8612 11.3128C43.2455 9.67187 41.0542 8.75 38.7692 8.75H12.9231C12.9231 7.58968 13.3769 6.47688 14.1848 5.65641C14.9926 4.83594 16.0883 4.375 17.2308 4.375H47.3846C48.5271 4.375 49.6228 4.83594 50.4306 5.65641C51.2385 6.47688 51.6923 7.58968 51.6923 8.75V52.5C51.6923 53.6603 51.2385 54.7731 50.4306 55.5936C49.6228 56.4141 48.5271 56.875 47.3846 56.875ZM4.30769 17.5C4.30769 16.3397 4.76154 15.2269 5.56939 14.4064C6.37724 13.5859 7.47291 13.125 8.61539 13.125H38.7692C39.9117 13.125 41.0074 13.5859 41.8152 14.4064C42.6231 15.2269 43.0769 16.3397 43.0769 17.5V61.25C43.0769 62.4103 42.6231 63.5231 41.8152 64.3436C41.0074 65.1641 39.9117 65.625 38.7692 65.625H8.61539C7.47291 65.625 6.37724 65.1641 5.56939 64.3436C4.76154 63.5231 4.30769 62.4103 4.30769 61.25V17.5Z" fill="#F2DD1C"/>
</svg>
