<svg width="30" height="32" viewBox="0 0 30 32" fill="none" xmlns="http://www.w3.org/2000/svg">
<path d="M28.5 0H6C5.20435 0 4.44129 0.337142 3.87868 0.937258C3.31607 1.53737 3 2.35131 3 3.2V8H0V11.2H3V14.4H0V17.6H3V20.8H0V24H3V28.8C3 29.6487 3.31607 30.4626 3.87868 31.0627C4.44129 31.6629 5.20435 32 6 32H28.5C28.8978 32 29.2794 31.8314 29.5607 31.5314C29.842 31.2313 30 30.8243 30 30.4V1.6C30 1.17565 29.842 0.768687 29.5607 0.468629C29.2794 0.168571 28.8978 0 28.5 0ZM16.5 4.7984C18.972 4.7984 21 6.96 21 9.5984C20.9957 10.8702 20.5202 12.0885 19.6773 12.988C18.8343 13.8874 17.6923 14.3949 16.5 14.4C14.0295 14.4 12 12.2352 12 9.5984C12 6.96 14.0295 4.7984 16.5 4.7984ZM25.5 25.6H7.5V24.4C7.5 20.8496 11.5575 17.2 16.5 17.2C21.4425 17.2 25.5 20.8496 25.5 24.4V25.6Z" fill="#545454"/>
</svg>
