<svg width="29" height="32" viewBox="0 0 29 32" fill="none" xmlns="http://www.w3.org/2000/svg">
<path d="M27.1559 0H1.70132C0.997339 0 0.428589 0.510714 0.428589 1.14286V20.0357C0.428589 20.0143 0.444498 20 0.468362 20H9.19052L9.39734 20.8821C9.87859 23.0179 11.9945 24.5714 14.4286 24.5714C16.8627 24.5714 18.9786 23.0179 19.4559 20.8821L19.6627 20H28.3888C28.4127 20 28.4286 20.0143 28.4286 20.0357V1.14286C28.4286 0.510714 27.8598 0 27.1559 0ZM22.3831 15.3214C22.3831 15.4786 22.24 15.6071 22.065 15.6071H6.79222C6.61723 15.6071 6.47404 15.4786 6.47404 15.3214V13.6071C6.47404 13.45 6.61723 13.3214 6.79222 13.3214H22.065C22.24 13.3214 22.3831 13.45 22.3831 13.6071V15.3214ZM22.3831 9.60714C22.3831 9.76429 22.24 9.89286 22.065 9.89286H6.79222C6.61723 9.89286 6.47404 9.76429 6.47404 9.60714V7.89286C6.47404 7.73571 6.61723 7.60714 6.79222 7.60714H22.065C22.24 7.60714 22.3831 7.73571 22.3831 7.89286V9.60714ZM28.3888 22.25H21.6712C21.2098 23.4214 20.3985 24.475 19.3206 25.275C17.9485 26.2964 16.2104 26.8571 14.4286 26.8571C12.6468 26.8571 10.9087 26.2929 9.53654 25.275C8.46305 24.4759 7.65074 23.4305 7.18598 22.25H0.468362C0.444498 22.25 0.428589 22.2357 0.428589 22.2143V30.8571C0.428589 31.4893 0.997339 32 1.70132 32H27.1559C27.8598 32 28.4286 31.4893 28.4286 30.8571V22.2143C28.4286 22.2357 28.4127 22.25 28.3888 22.25Z" fill="#E3F47A"/>
</svg>
