<svg width="29" height="30" viewBox="0 0 29 30" fill="none" xmlns="http://www.w3.org/2000/svg">
<path d="M11.1838 28.9286V21.4184C11.1838 20.8934 11.74 20.3578 12.2962 20.3578H16.7457C17.3019 20.3578 17.8581 20.8934 17.8581 21.4291V28.9286C17.8581 29.2128 17.9753 29.4853 18.1839 29.6862C18.3925 29.8871 18.6755 30 18.9705 30H27.8696C28.1647 30 28.4476 29.8871 28.6562 29.6862C28.8648 29.4853 28.982 29.2128 28.982 28.9286V13.9296C28.9823 13.7888 28.9537 13.6494 28.898 13.5192C28.8423 13.389 28.7604 13.2708 28.6572 13.1711L25.6449 10.272V3.216C25.6449 2.93185 25.5277 2.65935 25.319 2.45843C25.1104 2.25751 24.8275 2.14464 24.5325 2.14464H22.3077C22.0127 2.14464 21.7297 2.25751 21.5211 2.45843C21.3125 2.65935 21.1953 2.93185 21.1953 3.216V5.98653L15.3085 0.314752C15.2052 0.21498 15.0824 0.135822 14.9473 0.0818117C14.8122 0.0278014 14.6673 0 14.521 0C14.3746 0 14.2298 0.0278014 14.0946 0.0818117C13.9595 0.135822 13.8367 0.21498 13.7334 0.314752L0.384695 13.1711C0.281461 13.2708 0.199638 13.389 0.143904 13.5192C0.088169 13.6494 0.0596162 13.7888 0.0598773 13.9296V28.9286C0.0598773 29.2128 0.177075 29.4853 0.385689 29.6862C0.594303 29.8871 0.877243 30 1.17227 30H10.0714C10.3664 30 10.6494 29.8871 10.858 29.6862C11.0666 29.4853 11.1838 29.2128 11.1838 28.9286Z" fill="#48F32D"/>
</svg>
