<svg width="32" height="31" viewBox="0 0 32 31" fill="none" xmlns="http://www.w3.org/2000/svg">
<path d="M9.00403 17.6875C9.79968 17.6875 10.5627 17.3418 11.1253 16.7264C11.688 16.1111 12.004 15.2765 12.004 14.4062C12.004 13.536 11.688 12.7014 11.1253 12.0861C10.5627 11.4707 9.79968 11.125 9.00403 11.125C8.20838 11.125 7.44532 11.4707 6.88271 12.0861C6.3201 12.7014 6.00403 13.536 6.00403 14.4062C6.00403 15.2765 6.3201 16.1111 6.88271 16.7264C7.44532 17.3418 8.20838 17.6875 9.00403 17.6875Z" fill="#6DFFDC"/>
<path d="M28.004 26.4375C28.004 27.5978 27.5826 28.7106 26.8325 29.5311C26.0823 30.3516 25.0649 30.8125 24.004 30.8125H4.00403C2.94316 30.8125 1.92575 30.3516 1.1756 29.5311C0.425456 28.7106 0.00402832 27.5978 0.00402832 26.4375V8.9375C0.00402779 7.77794 0.424906 6.6658 1.17419 5.84545C1.92347 5.02511 2.93986 4.56366 4.00003 4.5625C4.00003 3.40218 4.42146 2.28938 5.1716 1.46891C5.92175 0.648436 6.93916 0.1875 8.00003 0.1875H28C29.0609 0.1875 30.0783 0.648436 30.8285 1.46891C31.5786 2.28938 32 3.40218 32 4.5625V22.0625C32 23.2221 31.5792 24.3342 30.8299 25.1545C30.0806 25.9749 29.0642 26.4363 28.004 26.4375ZM28 2.375H8.00003C7.4696 2.375 6.96089 2.60547 6.58582 3.0157C6.21074 3.42594 6.00003 3.98234 6.00003 4.5625H24.004C25.0649 4.5625 26.0823 5.02344 26.8325 5.84391C27.5826 6.66438 28.004 7.77718 28.004 8.9375V24.25C28.5338 24.2488 29.0415 24.0179 29.4157 23.6078C29.7899 23.1976 30 22.6419 30 22.0625V4.5625C30 3.98234 29.7893 3.42594 29.4142 3.0157C29.0392 2.60547 28.5305 2.375 28 2.375ZM4.00403 6.75C3.4736 6.75 2.96489 6.98047 2.58982 7.3907C2.21474 7.80094 2.00403 8.35734 2.00403 8.9375V26.4375L7.29603 21.2881C7.4595 21.11 7.67426 20.9992 7.90391 20.9744C8.13355 20.9497 8.36395 21.0126 8.55603 21.1525L13.876 25.0309L21.296 16.9153C21.4443 16.7529 21.6356 16.6457 21.8427 16.6088C22.0498 16.5719 22.2623 16.6072 22.45 16.7097L26.004 20.9688V8.9375C26.004 8.35734 25.7933 7.80094 25.4182 7.3907C25.0432 6.98047 24.5345 6.75 24.004 6.75H4.00403Z" fill="#6DFFDC"/>
</svg>
