<svg width="36" height="16" viewBox="0 0 36 16" fill="none" xmlns="http://www.w3.org/2000/svg">
<path d="M8.09379 15.875C6.64542 15.8747 5.22366 15.4963 3.97684 14.7792C2.73001 14.0621 1.7038 13.0326 1.00526 11.7981C0.306719 10.5636 -0.0385585 9.16932 0.00544625 7.76074C0.049451 6.35217 0.481126 4.98089 1.25544 3.78995C2.02975 2.59902 3.11833 1.63206 4.40762 0.989962C5.69691 0.347862 7.13966 0.0541411 8.58538 0.139442C10.0311 0.224743 11.4268 0.685939 12.6269 1.47492C13.827 2.2639 14.7875 3.35176 15.4082 4.625H32.375L35.8438 8L32.375 11.375L30.0625 9.125L27.75 11.375L25.4375 9.125L23.125 11.375L20.8125 9.125L18.5 11.375H15.4082C14.7517 12.7217 13.7158 13.8594 12.421 14.656C11.1263 15.4526 9.62571 15.8753 8.09379 15.875ZM5.78129 10.25C6.3946 10.25 6.9828 10.0129 7.41647 9.59099C7.85015 9.16903 8.09379 8.59674 8.09379 8C8.09379 7.40326 7.85015 6.83097 7.41647 6.40901C6.9828 5.98706 6.3946 5.75 5.78129 5.75C5.16798 5.75 4.57978 5.98706 4.1461 6.40901C3.71243 6.83097 3.46879 7.40326 3.46879 8C3.46879 8.59674 3.71243 9.16903 4.1461 9.59099C4.57978 10.0129 5.16798 10.25 5.78129 10.25Z" fill="url(#paint0_radial_23_15)"/>
<defs>
<radialGradient id="paint0_radial_23_15" cx="0" cy="0" r="1" gradientUnits="userSpaceOnUse" gradientTransform="translate(17.9227 8) rotate(90) scale(7.875 17.921)">
<stop stop-color="#3E22EA"/>
<stop offset="1" stop-color="#3E22EA" stop-opacity="0.58"/>
</radialGradient>
</defs>
</svg>
