<svg width="26" height="30" viewBox="0 0 26 30" fill="none" xmlns="http://www.w3.org/2000/svg">
<path d="M23.2143 13.125H21.8214V8.90625C21.8214 3.99609 17.8634 0 13 0C8.13661 0 4.17857 3.99609 4.17857 8.90625V13.125H2.78571C1.24777 13.125 0 14.3848 0 15.9375V27.1875C0 28.7402 1.24777 30 2.78571 30H23.2143C24.7522 30 26 28.7402 26 27.1875V15.9375C26 14.3848 24.7522 13.125 23.2143 13.125ZM17.1786 13.125H8.82143V8.90625C8.82143 6.58008 10.696 4.6875 13 4.6875C15.304 4.6875 17.1786 6.58008 17.1786 8.90625V13.125Z" fill="#F24E1E"/>
</svg>
