<svg width="30" height="28" viewBox="0 0 30 28" fill="none" xmlns="http://www.w3.org/2000/svg">
<path d="M22.5 24C22.5 26.21 20.4 28 17.8125 28C15.225 28 13.125 26.21 13.125 24C13.125 21.79 15.225 20 17.8125 20C20.4 20 22.5 21.79 22.5 24Z" fill="#FB6666"/>
<path fill-rule="evenodd" clip-rule="evenodd" d="M22.5 4V24H20.625V4H22.5Z" fill="#FB6666"/>
<path d="M20.625 3.64C20.6253 3.17782 20.7756 2.72999 21.0504 2.37267C21.3252 2.01535 21.7076 1.77059 22.1325 1.68L27.7575 0.48C28.0294 0.422027 28.31 0.429108 28.579 0.500735C28.8481 0.572361 29.0989 0.706749 29.3134 0.894216C29.5279 1.08168 29.7007 1.31756 29.8194 1.58486C29.9382 1.85216 29.9998 2.14422 30 2.44V6L20.625 8V3.64Z" fill="#FB6666"/>
<path fill-rule="evenodd" clip-rule="evenodd" d="M0 21C0 20.7348 0.0987721 20.4804 0.274587 20.2929C0.450403 20.1054 0.68886 20 0.9375 20H7.5C7.74864 20 7.9871 20.1054 8.16291 20.2929C8.33873 20.4804 8.4375 20.7348 8.4375 21C8.4375 21.2652 8.33873 21.5196 8.16291 21.7071C7.9871 21.8946 7.74864 22 7.5 22H0.9375C0.68886 22 0.450403 21.8946 0.274587 21.7071C0.0987721 21.5196 0 21.2652 0 21ZM0 13C0 12.7348 0.0987721 12.4804 0.274587 12.2929C0.450403 12.1054 0.68886 12 0.9375 12H15C15.2486 12 15.4871 12.1054 15.6629 12.2929C15.8387 12.4804 15.9375 12.7348 15.9375 13C15.9375 13.2652 15.8387 13.5196 15.6629 13.7071C15.4871 13.8946 15.2486 14 15 14H0.9375C0.68886 14 0.450403 13.8946 0.274587 13.7071C0.0987721 13.5196 0 13.2652 0 13ZM0 5C0 4.73478 0.0987721 4.48043 0.274587 4.29289C0.450403 4.10536 0.68886 4 0.9375 4H15C15.2486 4 15.4871 4.10536 15.6629 4.29289C15.8387 4.48043 15.9375 4.73478 15.9375 5C15.9375 5.26522 15.8387 5.51957 15.6629 5.70711C15.4871 5.89464 15.2486 6 15 6H0.9375C0.68886 6 0.450403 5.89464 0.274587 5.70711C0.0987721 5.51957 0 5.26522 0 5Z" fill="#FB6666"/>
</svg>
