<svg width="23" height="23" viewBox="0 0 23 23" fill="none" xmlns="http://www.w3.org/2000/svg">
<path d="M16.3798 14.8684V16.3782H14.8717H14.8702H13.9453C14.4283 16.0623 14.8786 15.6968 15.2886 15.2867C15.6986 14.8767 16.064 14.4264 16.3798 13.9435V14.8669V14.8684ZM16.3881 16.3853L16.3978 16.3782H16.3933L16.9482 15.621L22.2256 20.899C22.2256 20.8991 22.2256 20.8991 22.2257 20.8992C22.4014 21.0751 22.5001 21.3137 22.5 21.5624C22.4999 21.8112 22.401 22.0497 22.2251 22.2255C22.0492 22.4014 21.8106 22.5001 21.5619 22.5C21.3132 22.4999 21.0748 22.401 20.899 22.2251L20.8988 22.2249L15.6222 16.9475L16.3798 16.3914V16.3967L16.3881 16.3853ZM14.159 16.7631C12.4405 17.879 10.3825 18.3664 8.33651 18.1319C6.12231 17.8781 4.08556 16.7975 2.63374 15.1063C1.18192 13.4151 0.422102 11.238 0.506322 9.01049C0.590542 6.78302 1.51259 4.66951 3.08797 3.09278C4.66334 1.51605 6.77587 0.592388 9.00291 0.506564C11.2299 0.420741 13.4073 1.17908 15.0993 2.62989C16.7913 4.0807 17.8732 6.11699 18.1286 8.33137C18.3646 10.3779 17.8784 12.4371 16.7634 14.1569L16.4114 13.8948C16.6834 13.4725 16.9177 13.0256 17.1108 12.5593C17.5332 11.5393 17.7506 10.4461 17.7506 9.34205C17.7506 7.11238 16.865 4.97402 15.2886 3.39738C13.7122 1.82074 11.5741 0.934985 9.34469 0.934985C7.11527 0.934985 4.97717 1.82074 3.40076 3.39738C1.82434 4.97402 0.938737 7.11238 0.938737 9.34205C0.938737 10.4461 1.15616 11.5393 1.57859 12.5593C2.00103 13.5793 2.6202 14.506 3.40076 15.2867C4.18132 16.0674 5.10799 16.6867 6.12785 17.1092C7.14771 17.5317 8.2408 17.7491 9.34469 17.7491C10.4486 17.7491 11.5417 17.5317 12.5615 17.1092C13.0271 16.9163 13.4732 16.6824 13.8949 16.4109L14.159 16.7631Z" fill="#FEF2F2" stroke="#FFF8F8"/>
</svg>
