<svg width="31" height="32" viewBox="0 0 31 32" fill="none" xmlns="http://www.w3.org/2000/svg">
<path d="M15.139 11.6268C14.0711 11.6268 13.0711 12.0411 12.314 12.7982C11.5604 13.5554 11.1425 14.5554 11.1425 15.6232C11.1425 16.6911 11.5604 17.6911 12.314 18.4482C13.0711 19.2018 14.0711 19.6196 15.139 19.6196C16.2068 19.6196 17.2068 19.2018 17.964 18.4482C18.7175 17.6911 19.1354 16.6911 19.1354 15.6232C19.1354 14.5554 18.7175 13.5554 17.964 12.7982C17.5942 12.4256 17.154 12.1301 16.669 11.929C16.1841 11.7279 15.664 11.6252 15.139 11.6268ZM29.864 20.0375L27.5283 18.0411C27.639 17.3625 27.6961 16.6696 27.6961 15.9804C27.6961 15.2911 27.639 14.5946 27.5283 13.9196L29.864 11.9232C30.0404 11.7722 30.1667 11.571 30.226 11.3464C30.2854 11.1219 30.2749 10.8846 30.1961 10.6661L30.164 10.5732C29.5212 8.77568 28.558 7.10948 27.3211 5.65536L27.2568 5.58036C27.1066 5.40376 26.9065 5.27681 26.6827 5.21624C26.4589 5.15567 26.222 5.16433 26.0033 5.24107L23.1033 6.27321C22.0318 5.39464 20.839 4.70179 19.5461 4.21964L18.9854 1.1875C18.9431 0.95908 18.8323 0.748937 18.6677 0.584992C18.5031 0.421047 18.2926 0.31106 18.064 0.269643L17.9675 0.251786C16.1104 -0.0839286 14.1533 -0.0839286 12.2961 0.251786L12.1997 0.269643C11.9711 0.31106 11.7605 0.421047 11.5959 0.584992C11.4314 0.748937 11.3206 0.95908 11.2783 1.1875L10.714 4.23393C9.43336 4.71991 8.24038 5.41109 7.18183 6.28036L4.2604 5.24107C4.0417 5.16372 3.80465 5.15475 3.58074 5.21536C3.35682 5.27596 3.15665 5.40327 3.00683 5.58036L2.94254 5.65536C1.70787 7.11104 0.744937 8.77681 0.0996825 10.5732L0.0675396 10.6661C-0.0931747 11.1125 0.0389683 11.6125 0.399683 11.9232L2.76397 13.9411C2.65325 14.6125 2.59968 15.2982 2.59968 15.9768C2.59968 16.6625 2.65325 17.3482 2.76397 18.0125L0.406825 20.0304C0.230381 20.1814 0.104098 20.3826 0.044768 20.6072C-0.0145622 20.8317 -0.00412843 21.069 0.0746823 21.2875L0.106825 21.3804C0.753254 23.1768 1.70683 24.8375 2.94968 26.2982L3.01397 26.3732C3.16416 26.5498 3.36434 26.6768 3.58812 26.7373C3.8119 26.7979 4.04878 26.7892 4.26754 26.7125L7.18897 25.6732C8.25325 26.5482 9.43897 27.2411 10.7211 27.7196L11.2854 30.7661C11.3277 30.9945 11.4385 31.2046 11.6031 31.3686C11.7677 31.5325 11.9782 31.6425 12.2068 31.6839L12.3033 31.7018C14.1787 32.0393 16.0993 32.0393 17.9747 31.7018L18.0711 31.6839C18.2997 31.6425 18.5103 31.5325 18.6748 31.3686C18.8394 31.2046 18.9502 30.9945 18.9925 30.7661L19.5533 27.7339C20.8461 27.2482 22.039 26.5589 23.1104 25.6804L26.0104 26.7125C26.2291 26.7899 26.4661 26.7988 26.6901 26.7382C26.914 26.6776 27.1141 26.5503 27.264 26.3732L27.3283 26.2982C28.5711 24.8304 29.5247 23.1768 30.1711 21.3804L30.2033 21.2875C30.3568 20.8446 30.2247 20.3482 29.864 20.0375ZM15.139 21.9018C11.6711 21.9018 8.8604 19.0911 8.8604 15.6232C8.8604 12.1554 11.6711 9.34464 15.139 9.34464C18.6068 9.34464 21.4175 12.1554 21.4175 15.6232C21.4175 19.0911 18.6068 21.9018 15.139 21.9018Z" fill="#31F9A5"/>
</svg>
