<svg width="35" height="32" viewBox="0 0 35 32" fill="none" xmlns="http://www.w3.org/2000/svg">
<path d="M3.36845 32C3.36845 32 0.570435 32 0.570435 29.3333C0.570435 26.6667 3.36845 18.6667 17.3585 18.6667C31.3486 18.6667 34.1466 26.6667 34.1466 29.3333C34.1466 32 31.3486 32 31.3486 32H3.36845ZM17.3585 16C19.5848 16 21.7198 15.1571 23.294 13.6569C24.8682 12.1566 25.7526 10.1217 25.7526 8C25.7526 5.87827 24.8682 3.84344 23.294 2.34315C21.7198 0.842855 19.5848 0 17.3585 0C15.1323 0 12.9972 0.842855 11.423 2.34315C9.84885 3.84344 8.96448 5.87827 8.96448 8C8.96448 10.1217 9.84885 12.1566 11.423 13.6569C12.9972 15.1571 15.1323 16 17.3585 16Z" fill="#E842EC"/>
</svg>
