<svg width="30" height="28" viewBox="0 0 30 28" fill="none" xmlns="http://www.w3.org/2000/svg">
<path d="M26.25 15C26.25 16.0609 25.8549 17.0783 25.1516 17.8284C24.4484 18.5786 23.4946 19 22.5 19C21.5054 19 20.5516 18.5786 19.8484 17.8284C19.1451 17.0783 18.75 16.0609 18.75 15C18.75 13.9391 19.1451 12.9217 19.8484 12.1716C20.5516 11.4214 21.5054 11 22.5 11C23.4946 11 24.4484 11.4214 25.1516 12.1716C25.8549 12.9217 26.25 13.9391 26.25 15ZM15 26.4C15 28 16.5 28 16.5 28H28.5C28.5 28 30 28 30 26.4C30 24.8 28.5 20 22.5 20C16.5 20 15 24.8 15 26.4Z" fill="#BEFD6E"/>
<path d="M3.75 0C2.75544 0 1.80161 0.421427 1.09835 1.17157C0.395088 1.92172 0 2.93913 0 4L0 20C0 21.0609 0.395088 22.0783 1.09835 22.8284C1.80161 23.5786 2.75544 24 3.75 24H13.5806C13.8094 23.348 14.1337 22.664 14.5669 22H3.75C3.25272 22 2.77581 21.7893 2.42417 21.4142C2.07254 21.0391 1.875 20.5304 1.875 20V4C1.875 3.46957 2.07254 2.96086 2.42417 2.58579C2.77581 2.21071 3.25272 2 3.75 2H26.25C26.7473 2 27.2242 2.21071 27.5758 2.58579C27.9275 2.96086 28.125 3.46957 28.125 4V19.62C28.7869 20.08 29.355 20.612 29.8312 21.186C29.9419 20.812 30 20.414 30 20V4C30 2.93913 29.6049 1.92172 28.9016 1.17157C28.1984 0.421427 27.2446 0 26.25 0H3.75Z" fill="#BEFD6E"/>
</svg>
