<svg class="svg-icon" style="width: 1em; height: 1em;vertical-align: middle;fill: currentColor;overflow: hidden;" viewBox="0 0 1024 1024" version="1.1" xmlns="http://www.w3.org/2000/svg"><path d="M454.56 681.6h-56a256 256 0 0 0-256 256v16h768v-16a256 256 0 0 0-256-256h-56l-72 96-72-96z m72-96c-142.4 0-256-129.824-256-288s113.6-288 256-288 256 129.824 256 288-113.6 288-256 288z m0-64c105.024 0 192-99.424 192-224s-86.976-224-192-224-192 99.424-192 224 86.976 224 192 224z m448 496h-896v-80c0-176.736 143.264-320 320-320h256c176.736 0 320 143.264 320 320v80z"  /></svg>