<svg class="svg-icon" style="width: 1em; height: 1em;vertical-align: middle;fill: currentColor;overflow: hidden;" viewBox="0 0 1024 1024" version="1.1" xmlns="http://www.w3.org/2000/svg"><path d="M904.161882 587.294118c-13.733647 0-25.238588 9.456941-28.973176 22.708706C832.451765 761.976471 693.007059 873.411765 527.36 873.411765c-165.586824 0-305.091765-111.435294-347.828706-263.408941-3.704471-13.251765-15.239529-22.708706-28.973176-22.708706-19.968 0-34.304 19.184941-28.912942 38.4C171.188706 803.297882 333.914353 933.647059 527.299765 933.647059c193.475765 0 356.141176-130.349176 405.775059-307.952941a30.177882 30.177882 0 0 0-28.912942-38.4M150.528 436.705882c13.733647 0 25.268706-9.487059 28.973176-22.708706C222.238118 262.023529 361.743059 150.588235 527.36 150.588235c165.616941 0 305.121882 111.435294 347.858824 263.408941 3.704471 13.221647 15.209412 22.708706 28.943058 22.708706 19.998118 0 34.304-19.184941 28.912942-38.4C883.471059 220.702118 720.805647 90.352941 527.36 90.352941S171.218824 220.702118 121.615059 398.305882a30.177882 30.177882 0 0 0 28.912941 38.4" fill="#000000" /><path d="M86.949647 369.392941l138.691765 33.822118a12.047059 12.047059 0 0 1 5.180235 20.690823l-100.201412 89.840942a12.047059 12.047059 0 0 1-19.546353-5.421177L72.583529 384.692706a12.047059 12.047059 0 0 1 14.366118-15.269647zM972.077176 646.896941l-141.131294-21.62447a12.047059 12.047059 0 0 1-6.927058-20.148706l91.949176-98.213647a12.047059 12.047059 0 0 1 19.937882 3.644235l49.121883 119.868235a12.047059 12.047059 0 0 1-12.950589 16.474353z" fill="#000000" /></svg>